<?xml version="1.0" encoding="UTF-8" standalone="no"?>
<!-- Created with Serif DrawPlus 11, 0, 3, 23 (Feb 25, 14:12:55) (http://www.serif.com) -->
<svg version="1.1" xmlns="http://www.w3.org/2000/svg" xmlns:xlink="http://www.w3.org/1999/xlink" width="820" height="550" viewBox="0 0 390 230 ">
	<g id="dp_group001" transform="matrix(1,0,0,1,-149.24,-555.127)">
		<g id="dp_group002">
			<g id="dp_group003">
				<path id="dp_path004" fill="#02a73c" fill-rule="evenodd" d="M 419.625,701.473 L 420.909,703.811 L 423.477,708.485 L 431.953,696.223 L 417.057,696.799 Z "/>
				<path id="dp_path005" fill="#02a73c" d="M 268.916,787.299 L 420.909,703.811 L 419.627,701.475 L 267.633,784.963 Z "/>
			</g>
		</g>
		<g id="dp_group006">
			<g id="dp_group007">
				<g id="dp_group008">
					<path id="dp_path009" fill="#bd0331" fill-rule="evenodd" d="M 277.741,650.473 L 277.565,651.795 L 277.211,654.439 L 284.261,652.02 L 278.096,647.831 Z "/>
					<path id="dp_path010" fill="#bd0331" d="M 184.009,649.595 L 185.597,649.467 L 187.183,649.344 L 188.767,649.228 L 190.351,649.117 L 191.933,649.013 L 193.517,648.916 L 195.099,648.823 L 196.68,648.735 L 198.26,648.653 L 199.841,648.577 L 201.42,648.507 L 202.999,648.441 L 204.576,648.383 L 206.153,648.329 L 207.731,648.281 L 209.305,648.24 L 210.88,648.204 L 212.455,648.173 L 214.029,648.148 L 215.601,648.128 L 217.173,648.115 L 218.745,648.107 L 220.316,648.105 L 221.888,648.107 L 223.457,648.116 L 225.025,648.129 L 226.593,648.149 L 228.163,648.175 L 229.728,648.205 L 231.295,648.241 L 232.86,648.283 L 234.425,648.331 L 235.989,648.383 L 237.553,648.441 L 239.116,648.505 L 240.679,648.573 L 242.24,648.648 L 243.801,648.728 L 245.361,648.813 L 246.92,648.905 L 248.48,649.001 L 250.039,649.101 L 251.596,649.208 L 253.153,649.321 L 254.709,649.439 L 256.265,649.561 L 257.82,649.691 L 259.376,649.824 L 260.929,649.963 L 262.484,650.107 L 264.036,650.256 L 265.588,650.412 L 267.14,650.572 L 268.692,650.737 L 270.241,650.908 L 271.791,651.084 L 273.341,651.265 L 274.889,651.452 L 276.435,651.643 L 277.565,651.796 L 277.741,650.473 L 276.603,650.323 L 275.049,650.129 L 273.496,649.943 L 271.943,649.761 L 270.388,649.585 L 268.833,649.412 L 267.279,649.247 L 265.721,649.087 L 264.164,648.931 L 262.607,648.781 L 261.049,648.637 L 259.491,648.496 L 257.932,648.363 L 256.372,648.233 L 254.811,648.111 L 253.249,647.993 L 251.689,647.88 L 250.127,647.773 L 248.563,647.671 L 247,647.575 L 245.436,647.483 L 243.871,647.397 L 242.304,647.317 L 240.737,647.243 L 239.172,647.175 L 237.604,647.111 L 236.035,647.052 L 234.465,647 L 232.897,646.952 L 231.327,646.911 L 229.755,646.875 L 228.184,646.844 L 226.612,646.819 L 225.039,646.799 L 223.465,646.785 L 221.891,646.776 L 220.316,646.772 L 218.743,646.776 L 217.165,646.784 L 215.588,646.797 L 214.011,646.817 L 212.433,646.843 L 210.853,646.873 L 209.273,646.909 L 207.693,646.951 L 206.111,646.999 L 204.531,647.052 L 202.948,647.111 L 201.364,647.176 L 199.78,647.247 L 198.196,647.323 L 196.611,647.404 L 195.024,647.492 L 193.437,647.585 L 191.851,647.685 L 190.263,647.789 L 188.673,647.9 L 187.084,648.016 L 185.493,648.139 L 183.903,648.267 Z "/>
				</g>
			</g>
			<g id="dp_group011">
				<g id="dp_group012">
					<path id="dp_path013" fill="#bd0331" fill-rule="evenodd" d="M 303.836,651.731 L 305.112,652.12 L 307.273,654.173 L 305.837,647.461 L 300.897,652.227 Z "/>
					<path id="dp_path014" fill="#bd0331" d="M 304.123,655.359 L 305.112,652.12 L 303.837,651.731 L 302.848,654.969 Z "/>
				</g>
			</g>
			<g id="dp_group015">
				<g id="dp_group016">
					<path id="dp_path017" fill="#bd0331" fill-rule="evenodd" d="M 359.964,666.383 L 361.24,666.772 L 363.401,668.825 L 361.965,662.113 L 357.025,666.879 Z "/>
					<path id="dp_path018" fill="#bd0331" d="M 360.251,670.011 L 361.24,666.772 L 359.965,666.383 L 358.976,669.621 Z "/>
				</g>
			</g>
			<g id="dp_group019">
				<g id="dp_group020">
					<path id="dp_path021" fill="#bd0331" fill-rule="evenodd" d="M 325.427,662.82 L 324.135,662.489 L 321.88,660.539 L 323.627,667.176 L 328.34,662.187 Z "/>
					<path id="dp_path022" fill="#bd0331" d="M 324.947,659.308 L 324.135,662.489 L 325.425,662.82 L 326.237,659.639 Z "/>
				</g>
			</g>
			<g id="dp_group023">
				<g id="dp_group024">
					<path id="dp_path025" fill="#bd0331" fill-rule="evenodd" d="M 248.348,650.515 L 247.015,650.523 L 244.341,649.204 L 247.707,655.185 L 251.008,649.167 Z "/>
					<path id="dp_path026" fill="#bd0331" d="M 247.005,648.935 L 247.015,650.523 L 248.348,650.515 L 248.339,648.927 Z "/>
				</g>
			</g>
			<path id="dp_path027" fill="none" fill-rule="evenodd" stroke="#bd0331" stroke-width="1.33333" d="M 284.261,652.02 C 334.305,659.153 383.427,674.397 431.956,696.224"/>
		</g>
		<path id="dp_path028" fill="#bd0331" fill-rule="evenodd" d="M 317.727,669.949 C 317.617,670.272 317.613,670.563 317.715,670.821 C 317.805,671.085 317.941,671.32 318.124,671.527 C 318.325,671.724 318.536,671.911 318.757,672.088 C 318.968,672.267 319.168,672.432 319.356,672.585 C 318.579,672.665 317.833,672.94 317.115,673.407 C 316.381,673.864 315.855,674.552 315.533,675.471 C 315.259,676.28 315.271,676.997 315.572,677.62 C 315.849,678.273 316.455,678.608 317.385,678.628 C 318.4,678.619 319.252,678.325 319.939,677.748 C 320.624,677.183 321.109,676.484 321.393,675.648 C 321.693,674.712 321.679,673.917 321.349,673.263 C 321.025,672.593 320.549,672.067 319.92,671.68 C 319.135,671.131 318.644,670.733 318.448,670.491 C 318.339,670.361 318.277,670.249 318.264,670.153 C 318.241,670.053 318.248,669.956 318.28,669.861 C 318.425,669.407 318.8,669.171 319.404,669.151 C 319.848,669.161 320.231,669.264 320.552,669.46 C 320.872,669.668 321.14,669.904 321.355,670.173 C 321.569,670.427 321.728,670.629 321.831,670.777 C 321.92,670.941 322.001,671.023 322.075,671.023 C 322.168,671.023 322.231,670.976 322.264,670.879 C 322.343,670.645 322.235,670.184 321.944,669.497 C 321.78,669.187 321.541,668.924 321.227,668.709 C 320.912,668.495 320.501,668.381 319.996,668.372 C 319.511,668.372 319.064,668.503 318.656,668.765 C 318.216,669.027 317.907,669.423 317.727,669.949 Z M 319.392,673.011 C 320.44,673 320.684,673.883 320.124,675.653 C 319.924,676.271 319.631,676.841 319.243,677.363 C 318.824,677.913 318.285,678.193 317.628,678.203 C 317.164,678.203 316.856,677.988 316.705,677.557 C 316.543,677.145 316.603,676.511 316.885,675.653 C 317.105,674.977 317.413,674.377 317.811,673.851 C 318.223,673.309 318.749,673.029 319.392,673.011 Z "/>
		<path id="dp_path029" fill="#bd0331" fill-rule="evenodd" d="M 327.26,681.475 L 327.26,677.637 C 326.997,677.976 326.672,678.244 326.281,678.443 C 325.891,678.64 325.469,678.739 325.016,678.739 C 324.153,678.739 323.443,678.416 322.885,677.767 C 322.228,677.008 321.899,675.981 321.899,674.684 C 321.899,673.463 322.208,672.512 322.825,671.827 C 323.443,671.143 324.208,670.801 325.124,670.801 C 325.629,670.801 326.067,670.907 326.436,671.116 C 326.807,671.328 327.133,671.648 327.419,672.083 L 327.419,670.96 L 329.276,670.96 L 329.276,681.475 Z M 327.321,674.679 C 327.321,673.901 327.164,673.324 326.849,672.944 C 326.532,672.565 326.139,672.376 325.664,672.376 C 325.18,672.376 324.775,672.569 324.451,672.955 C 324.125,673.341 323.963,673.955 323.963,674.792 C 323.963,675.627 324.12,676.228 324.433,676.597 C 324.745,676.967 325.132,677.152 325.592,677.152 C 326.052,677.152 326.456,676.944 326.803,676.529 C 327.148,676.115 327.321,675.497 327.321,674.679 Z "/>
		<g id="dp_group030">
			<g id="dp_group031">
				<g id="dp_group032">
					<path id="dp_path033" fill="#0603bd" fill-rule="evenodd" fill-opacity="0.501961" d="M 259.741,655.081 L 259.547,656.4 L 259.157,659.039 L 266.239,656.715 L 260.131,652.443 Z "/>
					<path id="dp_path034" fill="#0603bd" fill-opacity="0.501961" d="M 183.932,649.597 L 186.555,649.688 L 189.171,649.791 L 191.783,649.904 L 194.391,650.028 L 196.996,650.163 L 199.597,650.307 L 202.195,650.461 L 204.789,650.624 L 207.38,650.799 L 209.968,650.983 L 212.552,651.177 L 215.133,651.381 L 217.711,651.595 L 220.284,651.817 L 222.857,652.049 L 225.425,652.291 L 227.991,652.543 L 230.552,652.803 L 233.111,653.072 L 235.668,653.351 L 238.223,653.639 L 240.773,653.935 L 243.32,654.24 L 245.865,654.555 L 248.409,654.877 L 250.949,655.208 L 253.487,655.548 L 256.023,655.897 L 258.553,656.253 L 259.547,656.401 L 259.741,655.081 L 258.743,654.936 L 256.204,654.577 L 253.665,654.228 L 251.123,653.888 L 248.577,653.557 L 246.031,653.232 L 243.48,652.917 L 240.928,652.612 L 238.372,652.316 L 235.815,652.028 L 233.252,651.747 L 230.688,651.477 L 228.121,651.217 L 225.551,650.965 L 222.977,650.724 L 220.401,650.489 L 217.823,650.267 L 215.24,650.053 L 212.653,649.849 L 210.064,649.655 L 207.471,649.471 L 204.875,649.296 L 202.275,649.131 L 199.672,648.976 L 197.065,648.832 L 194.455,648.697 L 191.841,648.573 L 189.224,648.46 L 186.603,648.357 L 183.98,648.264 Z "/>
				</g>
			</g>
			<g id="dp_group035">
				<g id="dp_group036">
					<path id="dp_path037" fill="#0603bd" fill-rule="evenodd" fill-opacity="0.501961" d="M 335.491,652.939 L 335.12,654.22 L 334.38,656.781 L 341.709,655.432 L 336.232,650.377 Z "/>
					<path id="dp_path038" fill="#0603bd" fill-opacity="0.501961" d="M 184.084,649.585 L 185.344,649.336 L 186.601,649.095 L 187.86,648.856 L 189.115,648.621 L 190.372,648.391 L 191.625,648.167 L 192.88,647.945 L 194.132,647.728 L 195.383,647.517 L 196.635,647.309 L 197.885,647.105 L 199.133,646.907 L 200.383,646.713 L 201.631,646.523 L 202.877,646.337 L 204.124,646.156 L 205.369,645.98 L 206.613,645.808 L 207.856,645.64 L 209.099,645.477 L 210.343,645.32 L 211.584,645.165 L 212.824,645.016 L 214.065,644.871 L 215.305,644.731 L 216.544,644.596 L 217.781,644.464 L 219.02,644.337 L 220.256,644.215 L 221.493,644.097 L 222.728,643.985 L 223.963,643.877 L 225.197,643.773 L 226.431,643.675 L 227.665,643.58 L 228.899,643.489 L 230.131,643.404 L 231.361,643.325 L 232.593,643.249 L 233.825,643.177 L 235.053,643.111 L 236.284,643.049 L 237.513,642.992 L 238.743,642.939 L 239.971,642.891 L 241.199,642.848 L 242.425,642.809 L 243.652,642.776 L 244.879,642.747 L 246.105,642.723 L 247.332,642.703 L 248.557,642.688 L 249.781,642.679 L 251.008,642.675 L 252.233,642.675 L 253.457,642.677 L 254.681,642.687 L 255.905,642.7 L 257.128,642.72 L 258.352,642.743 L 259.575,642.772 L 260.797,642.805 L 262.019,642.843 L 263.241,642.887 L 264.463,642.935 L 265.684,642.987 L 266.907,643.044 L 268.128,643.107 L 269.348,643.175 L 270.569,643.247 L 271.791,643.323 L 273.011,643.405 L 274.232,643.492 L 275.452,643.584 L 276.672,643.681 L 277.892,643.783 L 279.113,643.889 L 280.333,644 L 281.553,644.117 L 282.773,644.239 L 283.993,644.365 L 285.213,644.496 L 286.433,644.633 L 287.653,644.775 L 288.873,644.921 L 290.093,645.073 L 291.313,645.229 L 292.533,645.391 L 293.753,645.557 L 294.973,645.728 L 296.195,645.905 L 297.415,646.088 L 298.635,646.275 L 299.856,646.467 L 301.077,646.664 L 302.297,646.867 L 303.519,647.072 L 304.74,647.285 L 305.961,647.503 L 307.184,647.725 L 308.405,647.953 L 309.627,648.185 L 310.849,648.424 L 312.072,648.667 L 313.295,648.915 L 314.519,649.168 L 315.741,649.427 L 316.965,649.691 L 318.189,649.96 L 319.413,650.235 L 320.639,650.515 L 321.864,650.797 L 323.088,651.088 L 324.313,651.383 L 325.539,651.684 L 326.767,651.989 L 327.993,652.3 L 329.221,652.616 L 330.448,652.939 L 331.676,653.264 L 332.904,653.597 L 334.131,653.933 L 335.12,654.22 L 335.491,652.94 L 334.491,652.651 L 333.253,652.312 L 332.02,651.979 L 330.787,651.651 L 329.555,651.328 L 328.321,651.009 L 327.089,650.699 L 325.859,650.391 L 324.628,650.089 L 323.397,649.792 L 322.165,649.501 L 320.935,649.216 L 319.707,648.936 L 318.477,648.659 L 317.248,648.389 L 316.019,648.125 L 314.791,647.864 L 313.561,647.611 L 312.333,647.36 L 311.105,647.117 L 309.877,646.879 L 308.651,646.644 L 307.424,646.416 L 306.196,646.191 L 304.969,645.973 L 303.743,645.76 L 302.516,645.552 L 301.291,645.349 L 300.064,645.152 L 298.837,644.957 L 297.612,644.771 L 296.387,644.588 L 295.16,644.411 L 293.935,644.237 L 292.709,644.071 L 291.484,643.909 L 290.259,643.751 L 289.033,643.599 L 287.808,643.452 L 286.583,643.311 L 285.357,643.173 L 284.132,643.04 L 282.907,642.913 L 281.681,642.792 L 280.456,642.675 L 279.231,642.561 L 278.004,642.455 L 276.779,642.353 L 275.553,642.256 L 274.328,642.164 L 273.101,642.077 L 271.876,641.995 L 270.649,641.916 L 269.423,641.844 L 268.197,641.776 L 266.971,641.713 L 265.743,641.656 L 264.516,641.604 L 263.289,641.556 L 262.061,641.512 L 260.835,641.475 L 259.607,641.441 L 258.379,641.412 L 257.149,641.389 L 255.921,641.369 L 254.692,641.356 L 253.463,641.347 L 252.233,641.341 L 251.005,641.341 L 249.776,641.348 L 248.547,641.357 L 247.313,641.372 L 246.084,641.392 L 244.852,641.416 L 243.62,641.445 L 242.388,641.479 L 241.156,641.517 L 239.923,641.56 L 238.689,641.608 L 237.455,641.661 L 236.22,641.719 L 234.987,641.78 L 233.751,641.847 L 232.516,641.919 L 231.279,641.995 L 230.043,642.076 L 228.805,642.161 L 227.567,642.252 L 226.329,642.347 L 225.091,642.445 L 223.851,642.549 L 222.611,642.657 L 221.371,642.772 L 220.128,642.889 L 218.887,643.012 L 217.645,643.139 L 216.403,643.271 L 215.159,643.408 L 213.913,643.548 L 212.669,643.693 L 211.424,643.843 L 210.177,643.997 L 208.931,644.157 L 207.683,644.32 L 206.435,644.488 L 205.185,644.66 L 203.935,644.839 L 202.685,645.02 L 201.433,645.205 L 200.18,645.396 L 198.928,645.592 L 197.675,645.791 L 196.419,645.995 L 195.164,646.203 L 193.908,646.416 L 192.651,646.633 L 191.393,646.855 L 190.135,647.081 L 188.875,647.312 L 187.615,647.547 L 186.353,647.785 L 185.091,648.029 L 183.828,648.276 Z "/>
				</g>
			</g>
			<g id="dp_group039">
				<g id="dp_group040">
					<path id="dp_path041" fill="#0603bd" fill-rule="evenodd" fill-opacity="0.501961" d="M 315.569,619.247 L 315.287,620.549 L 314.721,623.156 L 321.943,621.313 L 316.136,616.641 Z "/>
					<path id="dp_path042" fill="#0603bd" fill-opacity="0.501961" d="M 184.263,649.523 L 186.431,648.397 L 188.595,647.288 L 190.757,646.192 L 191.836,645.651 L 192.916,645.111 L 193.995,644.577 L 195.073,644.045 L 196.151,643.519 L 197.228,642.997 L 198.304,642.477 L 199.381,641.963 L 200.456,641.451 L 201.532,640.944 L 202.607,640.443 L 203.68,639.943 L 204.755,639.449 L 205.827,638.96 L 206.9,638.475 L 207.972,637.993 L 209.045,637.517 L 210.116,637.044 L 211.188,636.577 L 212.259,636.115 L 213.329,635.657 L 214.4,635.203 L 215.469,634.755 L 216.539,634.312 L 217.609,633.872 L 218.677,633.437 L 219.745,633.009 L 220.813,632.585 L 221.881,632.165 L 222.949,631.752 L 224.017,631.344 L 225.084,630.94 L 226.152,630.541 L 227.219,630.148 L 228.285,629.761 L 229.352,629.379 L 230.419,629.001 L 231.485,628.629 L 232.552,628.264 L 233.617,627.904 L 234.683,627.549 L 235.749,627.2 L 236.816,626.857 L 237.88,626.52 L 238.947,626.188 L 240.012,625.863 L 241.077,625.543 L 242.141,625.229 L 243.208,624.921 L 244.275,624.62 L 245.339,624.324 L 246.404,624.033 L 247.469,623.751 L 248.536,623.475 L 249.6,623.203 L 250.665,622.939 L 251.732,622.681 L 252.799,622.429 L 253.864,622.184 L 254.929,621.947 L 255.996,621.713 L 257.061,621.489 L 258.128,621.271 L 259.195,621.059 L 260.261,620.855 L 261.329,620.656 L 262.396,620.465 L 263.464,620.28 L 264.532,620.103 L 265.6,619.933 L 266.667,619.769 L 267.736,619.615 L 268.804,619.465 L 269.875,619.323 L 270.943,619.189 L 272.012,619.061 L 273.081,618.943 L 274.152,618.829 L 275.223,618.724 L 276.295,618.628 L 277.367,618.537 L 278.437,618.455 L 279.509,618.38 L 280.583,618.315 L 281.655,618.256 L 282.729,618.204 L 283.803,618.16 L 284.876,618.124 L 285.951,618.097 L 287.028,618.077 L 288.103,618.065 L 289.18,618.064 L 290.257,618.067 L 291.335,618.08 L 292.413,618.101 L 293.492,618.131 L 294.572,618.168 L 295.651,618.215 L 296.732,618.269 L 297.812,618.333 L 298.896,618.404 L 299.977,618.484 L 301.061,618.573 L 302.145,618.669 L 303.229,618.776 L 304.315,618.892 L 305.4,619.015 L 306.487,619.148 L 307.575,619.288 L 308.663,619.439 L 309.752,619.599 L 310.841,619.767 L 311.932,619.945 L 313.024,620.131 L 314.116,620.327 L 315.204,620.532 L 315.288,620.551 L 315.568,619.247 L 315.465,619.225 L 314.356,619.017 L 313.253,618.819 L 312.151,618.631 L 311.049,618.452 L 309.949,618.281 L 308.849,618.121 L 307.751,617.968 L 306.652,617.825 L 305.555,617.692 L 304.459,617.567 L 303.363,617.451 L 302.268,617.344 L 301.173,617.245 L 300.079,617.156 L 298.987,617.076 L 297.895,617.003 L 296.804,616.939 L 295.712,616.884 L 294.623,616.837 L 293.532,616.8 L 292.443,616.771 L 291.356,616.749 L 290.268,616.736 L 289.18,616.731 L 288.095,616.735 L 287.009,616.747 L 285.924,616.767 L 284.839,616.793 L 283.755,616.829 L 282.671,616.873 L 281.588,616.925 L 280.505,616.984 L 279.424,617.052 L 278.341,617.127 L 277.26,617.209 L 276.18,617.3 L 275.1,617.399 L 274.019,617.504 L 272.94,617.617 L 271.86,617.739 L 270.783,617.867 L 269.704,618.003 L 268.625,618.145 L 267.549,618.295 L 266.472,618.452 L 265.395,618.616 L 264.319,618.788 L 263.243,618.968 L 262.167,619.153 L 261.092,619.347 L 260.016,619.545 L 258.941,619.752 L 257.867,619.964 L 256.792,620.185 L 255.719,620.412 L 254.644,620.645 L 253.571,620.885 L 252.497,621.133 L 251.423,621.385 L 250.351,621.645 L 249.277,621.912 L 248.205,622.184 L 247.133,622.463 L 246.06,622.748 L 244.987,623.039 L 243.915,623.337 L 242.843,623.641 L 241.771,623.949 L 240.699,624.265 L 239.625,624.588 L 238.555,624.916 L 237.483,625.248 L 236.411,625.588 L 235.339,625.933 L 234.267,626.285 L 233.196,626.64 L 232.123,627.003 L 231.051,627.371 L 229.979,627.745 L 228.907,628.123 L 227.835,628.508 L 226.763,628.897 L 225.691,629.293 L 224.617,629.692 L 223.545,630.099 L 222.472,630.509 L 221.399,630.925 L 220.325,631.345 L 219.252,631.772 L 218.179,632.203 L 217.105,632.64 L 216.032,633.08 L 214.957,633.525 L 213.883,633.976 L 212.809,634.431 L 211.733,634.891 L 210.657,635.356 L 209.583,635.825 L 208.507,636.299 L 207.431,636.777 L 206.353,637.261 L 205.277,637.747 L 204.2,638.239 L 203.123,638.735 L 202.044,639.235 L 200.967,639.739 L 199.888,640.248 L 198.808,640.76 L 197.728,641.277 L 196.649,641.797 L 195.569,642.321 L 194.487,642.851 L 193.405,643.383 L 192.324,643.919 L 191.241,644.459 L 190.157,645.003 L 187.989,646.101 L 185.82,647.213 L 183.649,648.339 Z "/>
				</g>
			</g>
			<g id="dp_group043">
				<g id="dp_group044">
					<path id="dp_path045" fill="#0603bd" fill-rule="evenodd" fill-opacity="0.501961" d="M 307.437,722.967 L 308.501,723.771 L 310.628,725.38 L 311.991,718.052 L 305.311,721.359 Z "/>
					<path id="dp_path046" fill="#0603bd" fill-opacity="0.501961" d="M 183.537,649.449 L 183.917,649.755 L 184.296,650.067 L 184.677,650.384 L 185.063,650.709 L 185.451,651.04 L 185.84,651.376 L 186.628,652.068 L 187.424,652.784 L 188.232,653.525 L 189.047,654.288 L 189.873,655.073 L 190.708,655.88 L 191.551,656.708 L 192.403,657.556 L 193.264,658.423 L 194.131,659.309 L 195.009,660.213 L 195.895,661.135 L 196.788,662.073 L 197.688,663.028 L 198.597,664 L 199.513,664.984 L 200.437,665.984 L 201.368,666.997 L 202.305,668.024 L 203.249,669.063 L 204.2,670.115 L 206.123,672.249 L 208.069,674.421 L 210.039,676.628 L 212.032,678.864 L 214.048,681.124 L 216.084,683.401 L 218.139,685.693 L 220.211,687.992 L 221.253,689.143 L 222.3,690.293 L 223.352,691.444 L 224.405,692.593 L 225.464,693.741 L 226.525,694.885 L 227.591,696.028 L 228.661,697.165 L 229.732,698.3 L 230.807,699.428 L 231.884,700.551 L 232.964,701.668 L 234.047,702.777 L 235.132,703.88 L 236.22,704.973 L 237.309,706.059 L 238.401,707.135 L 239.495,708.199 L 240.589,709.253 L 241.685,710.296 L 242.784,711.327 L 243.883,712.345 L 244.984,713.348 L 246.085,714.34 L 247.187,715.315 L 247.74,715.797 L 248.292,716.275 L 248.843,716.749 L 249.395,717.22 L 249.948,717.685 L 250.5,718.148 L 251.052,718.604 L 251.604,719.059 L 252.156,719.508 L 252.709,719.951 L 253.261,720.391 L 253.816,720.824 L 254.367,721.255 L 254.92,721.68 L 255.473,722.1 L 256.025,722.515 L 256.579,722.925 L 257.131,723.329 L 257.683,723.728 L 258.235,724.124 L 258.787,724.511 L 259.339,724.895 L 259.892,725.272 L 260.443,725.644 L 260.993,726.009 L 261.544,726.371 L 262.096,726.724 L 262.647,727.072 L 263.197,727.415 L 263.748,727.751 L 264.297,728.08 L 264.848,728.405 L 265.397,728.721 L 265.947,729.032 L 266.495,729.336 L 267.045,729.632 L 267.592,729.923 L 268.14,730.207 L 268.687,730.484 L 269.235,730.753 L 269.78,731.016 L 270.327,731.272 L 270.873,731.52 L 271.419,731.76 L 271.963,731.993 L 272.507,732.22 L 273.051,732.439 L 273.595,732.649 L 274.137,732.852 L 274.679,733.047 L 275.221,733.235 L 275.763,733.413 L 276.303,733.584 L 276.844,733.747 L 277.383,733.901 L 277.921,734.048 L 278.459,734.187 L 278.996,734.316 L 279.535,734.436 L 280.069,734.548 L 280.605,734.651 L 281.14,734.745 L 281.673,734.829 L 282.207,734.905 L 282.739,734.972 L 283.271,735.031 L 283.801,735.079 L 284.331,735.117 L 284.861,735.147 L 285.388,735.165 L 285.915,735.177 L 286.441,735.177 L 286.965,735.165 L 287.489,735.147 L 288.012,735.116 L 288.535,735.077 L 289.055,735.027 L 289.575,734.967 L 290.095,734.895 L 290.611,734.813 L 291.125,734.721 L 291.64,734.619 L 292.155,734.505 L 292.667,734.38 L 293.177,734.244 L 293.687,734.099 L 294.193,733.941 L 294.701,733.772 L 295.205,733.592 L 295.708,733.401 L 296.211,733.199 L 296.709,732.984 L 297.207,732.76 L 297.705,732.521 L 298.197,732.273 L 298.691,732.013 L 299.184,731.74 L 299.672,731.457 L 300.159,731.163 L 300.645,730.853 L 301.128,730.533 L 301.611,730.203 L 302.091,729.857 L 302.568,729.5 L 303.043,729.132 L 303.517,728.751 L 303.989,728.357 L 304.459,727.952 L 304.927,727.532 L 305.393,727.1 L 305.856,726.657 L 306.316,726.2 L 306.776,725.731 L 307.233,725.247 L 307.689,724.752 L 308.155,724.227 L 308.501,723.772 L 307.437,722.967 L 307.125,723.381 L 306.7,723.859 L 306.26,724.34 L 305.816,724.808 L 305.372,725.261 L 304.925,725.703 L 304.479,726.132 L 304.031,726.548 L 303.579,726.952 L 303.128,727.341 L 302.675,727.721 L 302.219,728.087 L 301.763,728.441 L 301.304,728.783 L 300.845,729.112 L 300.384,729.429 L 299.92,729.736 L 299.457,730.029 L 298.992,730.311 L 298.525,730.583 L 298.059,730.843 L 297.589,731.089 L 297.119,731.327 L 296.647,731.552 L 296.173,731.765 L 295.699,731.969 L 295.223,732.161 L 294.747,732.341 L 294.267,732.513 L 293.788,732.672 L 293.305,732.821 L 292.823,732.961 L 292.339,733.089 L 291.853,733.207 L 291.368,733.315 L 290.88,733.412 L 290.389,733.499 L 289.9,733.577 L 289.409,733.644 L 288.916,733.701 L 288.42,733.749 L 287.924,733.788 L 287.428,733.816 L 286.928,733.835 L 286.428,733.844 L 285.928,733.844 L 285.425,733.835 L 284.92,733.816 L 284.416,733.789 L 283.908,733.751 L 283.401,733.705 L 282.893,733.649 L 282.383,733.585 L 281.871,733.512 L 281.359,733.431 L 280.845,733.341 L 280.331,733.241 L 279.815,733.135 L 279.297,733.017 L 278.779,732.893 L 278.26,732.76 L 277.74,732.619 L 277.217,732.469 L 276.695,732.312 L 276.171,732.147 L 275.648,731.973 L 275.121,731.791 L 274.596,731.601 L 274.067,731.404 L 273.539,731.199 L 273.011,730.988 L 272.48,730.767 L 271.949,730.539 L 271.417,730.304 L 270.884,730.061 L 270.351,729.813 L 269.816,729.556 L 269.281,729.292 L 268.745,729.02 L 268.211,728.744 L 267.672,728.459 L 267.135,728.168 L 266.597,727.869 L 266.056,727.564 L 265.517,727.253 L 264.977,726.936 L 264.436,726.612 L 263.896,726.281 L 263.353,725.944 L 262.811,725.601 L 262.269,725.253 L 261.727,724.897 L 261.181,724.537 L 260.639,724.171 L 260.093,723.799 L 259.549,723.42 L 259.005,723.036 L 258.459,722.648 L 257.915,722.252 L 257.368,721.853 L 256.823,721.448 L 256.276,721.036 L 255.728,720.621 L 255.183,720.201 L 254.635,719.776 L 254.088,719.345 L 253.541,718.911 L 252.993,718.471 L 252.447,718.027 L 251.9,717.577 L 251.351,717.124 L 250.804,716.667 L 250.256,716.204 L 249.709,715.739 L 249.161,715.267 L 248.612,714.792 L 248.067,714.315 L 246.971,713.345 L 245.877,712.361 L 244.784,711.364 L 243.691,710.353 L 242.6,709.328 L 241.509,708.291 L 240.42,707.241 L 239.332,706.183 L 238.245,705.112 L 237.161,704.032 L 236.079,702.944 L 234.999,701.847 L 233.919,700.74 L 232.844,699.628 L 231.769,698.508 L 230.697,697.383 L 229.629,696.253 L 228.564,695.119 L 227.501,693.979 L 226.443,692.837 L 225.387,691.692 L 224.333,690.545 L 223.284,689.397 L 222.24,688.247 L 221.197,687.099 L 219.128,684.803 L 217.076,682.513 L 215.04,680.236 L 213.027,677.979 L 211.033,675.743 L 209.061,673.533 L 207.112,671.359 L 205.189,669.221 L 204.236,668.169 L 203.289,667.128 L 202.349,666.099 L 201.416,665.083 L 200.489,664.08 L 199.571,663.091 L 198.659,662.116 L 197.753,661.159 L 196.857,660.215 L 195.967,659.288 L 195.085,658.379 L 194.211,657.487 L 193.344,656.615 L 192.487,655.761 L 191.636,654.925 L 190.793,654.113 L 189.961,653.32 L 189.136,652.549 L 188.32,651.8 L 187.513,651.073 L 186.715,650.371 L 186.317,650.029 L 185.924,649.693 L 185.533,649.363 L 185.144,649.04 L 184.757,648.723 L 184.375,648.412 Z "/>
				</g>
			</g>
			<g id="dp_group047">
				<g id="dp_group048">
					<path id="dp_path049" fill="#0603bd" fill-rule="evenodd" fill-opacity="0.501961" d="M 297.104,605.611 L 297.528,606.875 L 298.375,609.403 L 303.637,604.124 L 296.256,603.081 Z "/>
					<path id="dp_path050" fill="#0603bd" fill-opacity="0.501961" d="M 184.295,649.504 L 185.18,648.981 L 186.068,648.463 L 186.961,647.948 L 187.859,647.437 L 188.763,646.931 L 189.671,646.427 L 190.583,645.928 L 191.497,645.432 L 192.419,644.94 L 193.344,644.451 L 194.273,643.965 L 195.207,643.484 L 196.144,643.007 L 197.084,642.532 L 198.027,642.063 L 198.975,641.596 L 199.928,641.131 L 200.883,640.671 L 201.841,640.213 L 202.803,639.76 L 203.767,639.309 L 204.733,638.863 L 205.705,638.419 L 206.679,637.977 L 207.653,637.541 L 208.633,637.107 L 209.613,636.676 L 210.597,636.248 L 211.584,635.824 L 212.571,635.403 L 213.56,634.984 L 214.553,634.568 L 215.547,634.157 L 216.543,633.747 L 217.54,633.341 L 218.539,632.936 L 219.539,632.536 L 220.541,632.14 L 221.544,631.744 L 222.548,631.353 L 224.561,630.577 L 226.577,629.812 L 228.595,629.057 L 230.615,628.315 L 232.636,627.583 L 234.659,626.86 L 236.68,626.147 L 238.7,625.444 L 240.717,624.751 L 242.732,624.065 L 244.745,623.391 L 246.752,622.724 L 248.753,622.067 L 250.751,621.417 L 252.739,620.776 L 254.72,620.143 L 256.693,619.516 L 258.656,618.9 L 260.611,618.288 L 262.552,617.684 L 266.403,616.497 L 270.2,615.337 L 273.937,614.2 L 277.609,613.085 L 281.209,611.991 L 284.731,610.915 L 288.167,609.856 L 289.851,609.332 L 291.512,608.812 L 293.149,608.295 L 294.76,607.783 L 296.348,607.269 L 297.528,606.875 L 297.104,605.611 L 295.932,606.005 L 294.355,606.513 L 292.747,607.025 L 291.115,607.543 L 289.456,608.06 L 287.775,608.584 L 284.341,609.64 L 280.823,610.716 L 277.223,611.811 L 273.551,612.925 L 269.813,614.063 L 266.013,615.225 L 262.16,616.412 L 260.216,617.016 L 258.259,617.628 L 256.293,618.247 L 254.317,618.873 L 252.333,619.507 L 250.34,620.151 L 248.34,620.8 L 246.336,621.46 L 244.324,622.127 L 242.308,622.804 L 240.288,623.489 L 238.265,624.185 L 236.24,624.891 L 234.213,625.604 L 232.185,626.329 L 230.159,627.064 L 228.133,627.809 L 226.108,628.567 L 224.087,629.332 L 222.068,630.111 L 221.059,630.504 L 220.053,630.9 L 219.048,631.299 L 218.043,631.701 L 217.039,632.107 L 216.039,632.515 L 215.04,632.925 L 214.041,633.339 L 213.045,633.757 L 212.051,634.176 L 211.059,634.6 L 210.069,635.027 L 209.08,635.455 L 208.095,635.888 L 207.112,636.325 L 206.132,636.764 L 205.153,637.205 L 204.179,637.652 L 203.207,638.101 L 202.237,638.555 L 201.271,639.011 L 200.307,639.471 L 199.347,639.933 L 198.391,640.399 L 197.437,640.868 L 196.487,641.343 L 195.541,641.82 L 194.599,642.3 L 193.66,642.784 L 192.725,643.272 L 191.795,643.764 L 190.868,644.259 L 189.945,644.757 L 189.028,645.261 L 188.115,645.768 L 187.205,646.277 L 186.3,646.793 L 185.401,647.311 L 184.505,647.832 L 183.617,648.357 Z "/>
				</g>
			</g>
			<g id="dp_group051">
				<g id="dp_group052">
					<path id="dp_path053" fill="#0603bd" fill-rule="evenodd" fill-opacity="0.501961" d="M 292.404,705.828 L 291.749,704.667 L 290.44,702.343 L 286.268,708.519 L 293.712,708.152 Z "/>
					<path id="dp_path054" fill="#0603bd" fill-opacity="0.501961" d="M 183.692,648.319 L 182.504,648.832 L 181.351,649.336 L 180.236,649.833 L 179.157,650.323 L 178.117,650.805 L 177.113,651.279 L 176.147,651.745 L 175.215,652.204 L 174.317,652.655 L 173.457,653.1 L 172.632,653.537 L 171.841,653.968 L 171.085,654.391 L 170.363,654.807 L 169.675,655.217 L 169.02,655.619 L 168.703,655.819 L 168.397,656.016 L 168.099,656.211 L 167.808,656.405 L 167.524,656.599 L 167.249,656.791 L 166.984,656.98 L 166.725,657.169 L 166.475,657.355 L 166.232,657.541 L 165.996,657.725 L 165.769,657.908 L 165.548,658.091 L 165.337,658.271 L 165.133,658.448 L 164.935,658.627 L 164.745,658.804 L 164.563,658.981 L 164.389,659.156 L 164.223,659.328 L 164.063,659.501 L 163.909,659.675 L 163.765,659.845 L 163.628,660.015 L 163.497,660.185 L 163.375,660.353 L 163.259,660.523 L 163.148,660.691 L 163.045,660.861 L 162.952,661.031 L 162.867,661.197 L 162.787,661.365 L 162.716,661.535 L 162.652,661.7 L 162.595,661.868 L 162.547,662.037 L 162.507,662.204 L 162.473,662.375 L 162.451,662.541 L 162.433,662.708 L 162.427,662.877 L 162.429,663.04 L 162.439,663.205 L 162.457,663.373 L 162.487,663.535 L 162.521,663.691 L 162.565,663.851 L 162.619,664.007 L 162.679,664.16 L 162.747,664.311 L 162.823,664.46 L 162.907,664.604 L 162.996,664.744 L 163.092,664.883 L 163.196,665.019 L 163.304,665.151 L 163.421,665.284 L 163.545,665.411 L 163.669,665.532 L 163.803,665.655 L 163.943,665.776 L 164.087,665.892 L 164.237,666.008 L 164.396,666.123 L 164.556,666.232 L 164.724,666.341 L 164.896,666.448 L 165.072,666.553 L 165.256,666.657 L 165.445,666.76 L 165.641,666.86 L 165.84,666.959 L 166.043,667.055 L 166.251,667.149 L 166.465,667.245 L 166.688,667.339 L 166.913,667.429 L 167.144,667.52 L 167.617,667.695 L 168.113,667.867 L 168.631,668.033 L 169.168,668.195 L 169.723,668.352 L 170.299,668.504 L 170.892,668.652 L 171.507,668.797 L 172.139,668.937 L 172.789,669.073 L 173.457,669.207 L 174.147,669.336 L 174.851,669.461 L 175.572,669.584 L 176.312,669.703 L 177.068,669.817 L 177.841,669.929 L 178.631,670.037 L 179.435,670.143 L 180.256,670.245 L 181.093,670.345 L 181.944,670.441 L 182.811,670.536 L 183.692,670.627 L 184.588,670.715 L 185.497,670.8 L 186.42,670.884 L 187.356,670.964 L 188.305,671.043 L 189.268,671.119 L 190.244,671.192 L 192.231,671.332 L 194.263,671.467 L 196.34,671.592 L 198.459,671.709 L 200.617,671.821 L 202.812,671.927 L 205.041,672.028 L 207.303,672.123 L 209.595,672.215 L 211.913,672.303 L 214.257,672.388 L 219.009,672.551 L 223.831,672.707 L 228.704,672.863 L 233.609,673.021 L 238.525,673.188 L 240.983,673.276 L 243.436,673.367 L 245.881,673.461 L 248.317,673.561 L 250.743,673.667 L 253.153,673.779 L 255.548,673.896 L 257.924,674.02 L 260.279,674.152 L 262.609,674.291 L 264.912,674.439 L 267.188,674.596 L 268.315,674.679 L 269.432,674.763 L 270.543,674.851 L 271.643,674.94 L 272.735,675.033 L 273.819,675.128 L 274.891,675.227 L 275.953,675.327 L 277.007,675.432 L 278.049,675.539 L 279.08,675.649 L 280.101,675.761 L 281.109,675.879 L 282.107,675.999 L 283.091,676.121 L 284.064,676.248 L 285.024,676.379 L 285.971,676.512 L 286.903,676.649 L 287.823,676.789 L 288.729,676.936 L 289.621,677.084 L 290.497,677.237 L 291.359,677.393 L 292.204,677.553 L 293.037,677.719 L 293.851,677.887 L 294.649,678.06 L 295.432,678.237 L 296.199,678.417 L 296.945,678.604 L 297.677,678.795 L 298.389,678.988 L 299.083,679.187 L 299.76,679.391 L 300.417,679.599 L 301.055,679.812 L 301.675,680.029 L 302.275,680.251 L 302.564,680.363 L 302.851,680.477 L 303.132,680.592 L 303.409,680.709 L 303.681,680.825 L 303.945,680.944 L 304.205,681.064 L 304.46,681.184 L 304.711,681.307 L 304.956,681.431 L 305.195,681.555 L 305.428,681.679 L 305.653,681.804 L 305.876,681.933 L 306.093,682.061 L 306.304,682.192 L 306.508,682.323 L 306.708,682.455 L 306.901,682.587 L 307.088,682.72 L 307.271,682.856 L 307.447,682.992 L 307.616,683.129 L 307.779,683.267 L 307.935,683.404 L 308.088,683.544 L 308.235,683.685 L 308.373,683.825 L 308.505,683.968 L 308.636,684.112 L 308.756,684.255 L 308.871,684.399 L 308.981,684.545 L 309.084,684.689 L 309.18,684.836 L 309.272,684.984 L 309.357,685.132 L 309.437,685.281 L 309.511,685.431 L 309.579,685.581 L 309.64,685.732 L 309.696,685.888 L 309.748,686.041 L 309.791,686.196 L 309.831,686.352 L 309.863,686.509 L 309.891,686.668 L 309.912,686.829 L 309.928,686.993 L 309.937,687.157 L 309.941,687.324 L 309.94,687.492 L 309.931,687.663 L 309.917,687.835 L 309.897,688.009 L 309.869,688.188 L 309.837,688.368 L 309.799,688.548 L 309.751,688.733 L 309.699,688.923 L 309.64,689.109 L 309.573,689.301 L 309.499,689.497 L 309.419,689.693 L 309.332,689.892 L 309.236,690.095 L 309.133,690.3 L 309.024,690.507 L 308.907,690.716 L 308.781,690.931 L 308.651,691.144 L 308.511,691.361 L 308.364,691.583 L 308.208,691.803 L 308.047,692.027 L 307.875,692.253 L 307.695,692.484 L 307.508,692.716 L 307.315,692.949 L 307.113,693.185 L 306.901,693.424 L 306.683,693.665 L 306.456,693.908 L 306.221,694.155 L 305.979,694.403 L 305.727,694.653 L 305.467,694.905 L 305.199,695.16 L 304.923,695.416 L 304.636,695.676 L 304.344,695.939 L 304.043,696.201 L 303.732,696.468 L 303.413,696.737 L 303.087,697.008 L 302.751,697.28 L 302.405,697.556 L 302.052,697.833 L 301.689,698.113 L 301.319,698.396 L 300.94,698.679 L 300.552,698.965 L 300.155,699.255 L 299.749,699.545 L 299.333,699.839 L 298.909,700.136 L 298.476,700.433 L 298.035,700.733 L 297.583,701.036 L 297.123,701.341 L 296.653,701.648 L 296.175,701.957 L 295.687,702.271 L 295.191,702.584 L 294.169,703.22 L 293.108,703.864 L 292.017,704.516 L 291.749,704.665 L 292.403,705.828 L 292.684,705.668 L 293.796,705.005 L 294.865,704.353 L 295.897,703.712 L 296.401,703.393 L 296.895,703.077 L 297.379,702.765 L 297.856,702.453 L 298.321,702.143 L 298.779,701.837 L 299.228,701.532 L 299.667,701.229 L 300.099,700.929 L 300.52,700.631 L 300.933,700.335 L 301.339,700.04 L 301.735,699.748 L 302.121,699.457 L 302.5,699.169 L 302.871,698.884 L 303.232,698.599 L 303.585,698.317 L 303.929,698.037 L 304.267,697.759 L 304.593,697.484 L 304.915,697.209 L 305.227,696.936 L 305.529,696.665 L 305.824,696.397 L 306.111,696.131 L 306.389,695.865 L 306.66,695.603 L 306.923,695.341 L 307.179,695.08 L 307.424,694.823 L 307.664,694.567 L 307.893,694.312 L 308.116,694.06 L 308.333,693.808 L 308.54,693.559 L 308.74,693.311 L 308.931,693.064 L 309.116,692.819 L 309.293,692.576 L 309.463,692.332 L 309.623,692.092 L 309.779,691.853 L 309.925,691.613 L 310.064,691.377 L 310.195,691.141 L 310.317,690.908 L 310.433,690.676 L 310.543,690.444 L 310.645,690.213 L 310.739,689.983 L 310.824,689.755 L 310.904,689.528 L 310.976,689.299 L 311.039,689.075 L 311.095,688.852 L 311.144,688.627 L 311.184,688.407 L 311.217,688.185 L 311.243,687.965 L 311.261,687.748 L 311.271,687.532 L 311.275,687.316 L 311.268,687.101 L 311.256,686.889 L 311.235,686.68 L 311.208,686.471 L 311.172,686.261 L 311.129,686.056 L 311.079,685.852 L 311.02,685.649 L 310.955,685.451 L 310.883,685.255 L 310.803,685.059 L 310.716,684.865 L 310.624,684.676 L 310.523,684.487 L 310.416,684.301 L 310.303,684.119 L 310.183,683.937 L 310.056,683.759 L 309.924,683.583 L 309.785,683.409 L 309.639,683.237 L 309.489,683.069 L 309.333,682.903 L 309.168,682.736 L 309,682.576 L 308.828,682.415 L 308.648,682.256 L 308.461,682.1 L 308.271,681.947 L 308.073,681.795 L 307.872,681.645 L 307.664,681.496 L 307.452,681.351 L 307.233,681.205 L 307.011,681.064 L 306.781,680.923 L 306.548,680.784 L 306.309,680.647 L 306.065,680.511 L 305.816,680.376 L 305.561,680.244 L 305.303,680.115 L 305.039,679.984 L 304.768,679.856 L 304.495,679.731 L 304.215,679.607 L 303.929,679.483 L 303.641,679.363 L 303.349,679.243 L 303.049,679.123 L 302.744,679.005 L 302.125,678.776 L 301.487,678.551 L 300.828,678.332 L 300.152,678.119 L 299.459,677.909 L 298.747,677.705 L 298.019,677.507 L 297.273,677.313 L 296.511,677.124 L 295.731,676.939 L 294.937,676.759 L 294.125,676.583 L 293.299,676.412 L 292.457,676.247 L 291.601,676.084 L 290.729,675.925 L 289.843,675.772 L 288.943,675.621 L 288.028,675.475 L 287.1,675.332 L 286.16,675.195 L 285.205,675.059 L 284.237,674.928 L 283.259,674.801 L 282.267,674.676 L 281.264,674.556 L 280.251,674.439 L 279.224,674.324 L 278.188,674.213 L 277.14,674.107 L 276.081,674.001 L 275.013,673.901 L 273.936,673.803 L 272.849,673.705 L 271.752,673.612 L 270.647,673.523 L 269.533,673.435 L 268.411,673.351 L 267.281,673.268 L 265,673.111 L 262.689,672.96 L 260.353,672.821 L 257.993,672.689 L 255.615,672.565 L 253.215,672.448 L 250.801,672.336 L 248.373,672.231 L 245.932,672.131 L 243.484,672.036 L 241.031,671.945 L 238.571,671.857 L 233.652,671.691 L 228.747,671.532 L 223.873,671.376 L 219.052,671.22 L 214.303,671.057 L 211.961,670.972 L 209.645,670.884 L 207.356,670.792 L 205.097,670.697 L 202.873,670.596 L 200.681,670.491 L 198.528,670.379 L 196.415,670.261 L 194.345,670.136 L 192.319,670.004 L 190.34,669.864 L 189.369,669.791 L 188.412,669.715 L 187.468,669.636 L 186.535,669.556 L 185.617,669.475 L 184.713,669.389 L 183.825,669.301 L 182.949,669.211 L 182.091,669.119 L 181.245,669.023 L 180.416,668.923 L 179.603,668.823 L 178.807,668.717 L 178.025,668.609 L 177.263,668.5 L 176.517,668.385 L 175.788,668.269 L 175.077,668.149 L 174.384,668.027 L 173.711,667.9 L 173.056,667.769 L 172.419,667.636 L 171.803,667.499 L 171.207,667.359 L 170.629,667.213 L 170.075,667.067 L 169.539,666.915 L 169.025,666.761 L 168.535,666.603 L 168.065,666.441 L 167.616,666.275 L 167.404,666.192 L 167.195,666.107 L 166.993,666.021 L 166.797,665.936 L 166.605,665.847 L 166.419,665.759 L 166.239,665.671 L 166.067,665.581 L 165.901,665.492 L 165.741,665.401 L 165.587,665.309 L 165.439,665.219 L 165.297,665.125 L 165.161,665.032 L 165.035,664.941 L 164.913,664.847 L 164.796,664.752 L 164.688,664.66 L 164.587,664.567 L 164.487,664.469 L 164.397,664.377 L 164.317,664.287 L 164.239,664.192 L 164.169,664.101 L 164.105,664.008 L 164.045,663.913 L 163.993,663.823 L 163.947,663.732 L 163.905,663.643 L 163.869,663.551 L 163.84,663.461 L 163.815,663.371 L 163.793,663.273 L 163.777,663.181 L 163.767,663.091 L 163.76,662.995 L 163.76,662.896 L 163.764,662.799 L 163.773,662.696 L 163.788,662.591 L 163.808,662.487 L 163.835,662.376 L 163.867,662.265 L 163.905,662.151 L 163.951,662.031 L 164.003,661.909 L 164.061,661.787 L 164.128,661.657 L 164.2,661.528 L 164.279,661.397 L 164.365,661.261 L 164.46,661.124 L 164.564,660.983 L 164.673,660.839 L 164.792,660.693 L 164.917,660.544 L 165.049,660.395 L 165.191,660.243 L 165.341,660.087 L 165.499,659.928 L 165.663,659.769 L 165.836,659.608 L 166.016,659.445 L 166.207,659.279 L 166.404,659.109 L 166.609,658.94 L 166.823,658.768 L 167.045,658.595 L 167.275,658.419 L 167.515,658.241 L 167.763,658.06 L 168.017,657.879 L 168.281,657.695 L 168.552,657.509 L 168.832,657.323 L 169.123,657.133 L 169.42,656.941 L 169.724,656.749 L 170.363,656.356 L 171.035,655.956 L 171.741,655.548 L 172.484,655.133 L 173.261,654.711 L 174.073,654.279 L 174.923,653.841 L 175.807,653.396 L 176.728,652.943 L 177.687,652.481 L 178.68,652.011 L 179.712,651.533 L 180.783,651.049 L 181.889,650.555 L 183.035,650.053 L 184.22,649.543 Z "/>
				</g>
			</g>
		</g>
		<g id="dp_group055">
			<path id="dp_path056" fill="#02a73c" fill-rule="evenodd" d="M 442.613,711.037 L 442.613,707.2 C 442.351,707.539 442.025,707.807 441.635,708.005 C 441.244,708.203 440.823,708.301 440.369,708.301 C 439.507,708.301 438.796,707.979 438.239,707.329 C 437.581,706.571 437.252,705.544 437.252,704.247 C 437.252,703.025 437.561,702.075 438.179,701.389 C 438.796,700.705 439.561,700.364 440.477,700.364 C 440.983,700.364 441.42,700.469 441.789,700.679 C 442.16,700.891 442.487,701.211 442.772,701.645 L 442.772,700.523 L 444.629,700.523 L 444.629,711.037 Z M 442.675,704.241 C 442.675,703.464 442.517,702.887 442.203,702.507 C 441.885,702.128 441.492,701.939 441.017,701.939 C 440.533,701.939 440.128,702.132 439.804,702.517 C 439.479,702.904 439.316,703.517 439.316,704.355 C 439.316,705.189 439.473,705.791 439.787,706.16 C 440.099,706.529 440.485,706.715 440.945,706.715 C 441.405,706.715 441.809,706.507 442.156,706.092 C 442.501,705.677 442.675,705.06 442.675,704.241 Z "/>
			<path id="dp_path057" fill="#02a73c" fill-rule="evenodd" d="M 450.703,714.037 L 450.703,714.897 L 445.852,714.897 C 445.845,714.681 445.881,714.472 445.957,714.273 C 446.081,713.943 446.28,713.619 446.555,713.299 C 446.828,712.98 447.221,712.612 447.733,712.195 C 448.528,711.543 449.067,711.025 449.349,710.644 C 449.632,710.263 449.773,709.901 449.773,709.56 C 449.773,709.204 449.645,708.904 449.388,708.659 C 449.132,708.415 448.797,708.291 448.387,708.291 C 447.949,708.291 447.601,708.421 447.34,708.68 C 447.079,708.94 446.947,709.299 446.943,709.757 L 446.023,709.664 C 446.085,708.976 446.324,708.452 446.739,708.091 C 447.152,707.731 447.708,707.549 448.405,707.549 C 449.109,707.549 449.667,707.744 450.079,708.133 C 450.488,708.523 450.693,709.005 450.693,709.581 C 450.693,709.875 450.633,710.163 450.513,710.445 C 450.392,710.728 450.193,711.027 449.915,711.34 C 449.635,711.652 449.173,712.083 448.527,712.628 C 447.987,713.081 447.639,713.388 447.484,713.551 C 447.329,713.711 447.201,713.873 447.1,714.037 Z "/>
		</g>
		<g id="dp_group058">
			<path id="dp_path059" fill="#02a73c" fill-rule="evenodd" d="M 461.715,709.833 L 461.5,710.892 C 461.191,710.975 460.889,711.015 460.599,711.015 C 460.083,711.015 459.669,710.887 459.363,710.633 C 459.135,710.441 459.02,710.181 459.02,709.851 C 459.02,709.683 459.081,709.297 459.205,708.695 L 460.133,704.261 L 459.108,704.261 L 459.316,703.272 L 460.341,703.272 L 460.733,701.415 L 462.209,700.524 L 461.636,703.272 L 462.905,703.272 L 462.699,704.261 L 461.428,704.261 L 460.549,708.477 C 460.439,709.015 460.384,709.335 460.384,709.441 C 460.384,709.595 460.428,709.711 460.516,709.793 C 460.605,709.875 460.749,709.915 460.949,709.915 C 461.236,709.915 461.492,709.888 461.715,709.833 Z "/>
			<path id="dp_path060" fill="#02a73c" fill-rule="evenodd" d="M 467.581,714.7 L 467.581,715.56 L 462.731,715.56 C 462.724,715.344 462.76,715.135 462.836,714.936 C 462.96,714.605 463.159,714.281 463.433,713.961 C 463.707,713.643 464.1,713.275 464.612,712.857 C 465.407,712.205 465.945,711.688 466.228,711.307 C 466.511,710.925 466.652,710.564 466.652,710.223 C 466.652,709.867 466.524,709.567 466.267,709.321 C 466.011,709.077 465.676,708.953 465.265,708.953 C 464.828,708.953 464.48,709.084 464.219,709.343 C 463.957,709.603 463.825,709.961 463.821,710.42 L 462.901,710.327 C 462.964,709.639 463.203,709.115 463.617,708.753 C 464.031,708.393 464.587,708.212 465.284,708.212 C 465.988,708.212 466.545,708.407 466.957,708.796 C 467.367,709.185 467.572,709.668 467.572,710.244 C 467.572,710.537 467.512,710.825 467.392,711.108 C 467.271,711.391 467.072,711.689 466.793,712.003 C 466.513,712.315 466.052,712.745 465.405,713.291 C 464.865,713.744 464.517,714.051 464.363,714.213 C 464.208,714.373 464.08,714.536 463.979,714.7 Z "/>
		</g>
		<g id="dp_group061">
			<path id="dp_path062" fill="#02a73c" fill-rule="evenodd" d="M 154.601,641.924 L 154.601,638.087 C 154.339,638.425 154.013,638.693 153.623,638.892 C 153.232,639.089 152.811,639.188 152.357,639.188 C 151.495,639.188 150.784,638.865 150.227,638.216 C 149.569,637.457 149.24,636.431 149.24,635.133 C 149.24,633.912 149.549,632.961 150.167,632.276 C 150.784,631.592 151.549,631.251 152.465,631.251 C 152.971,631.251 153.408,631.356 153.777,631.565 C 154.148,631.777 154.475,632.097 154.76,632.532 L 154.76,631.409 L 156.617,631.409 L 156.617,641.924 Z M 154.663,635.128 C 154.663,634.351 154.505,633.773 154.191,633.393 C 153.873,633.015 153.48,632.825 153.005,632.825 C 152.521,632.825 152.116,633.019 151.792,633.404 C 151.467,633.791 151.304,634.404 151.304,635.241 C 151.304,636.076 151.461,636.677 151.775,637.047 C 152.087,637.416 152.473,637.601 152.933,637.601 C 153.393,637.601 153.797,637.393 154.144,636.979 C 154.489,636.564 154.663,635.947 154.663,635.128 Z "/>
			<path id="dp_path063" fill="#02a73c" fill-rule="evenodd" d="M 161.352,645.784 L 160.457,645.784 L 160.457,640.059 C 160.24,640.265 159.956,640.471 159.605,640.677 C 159.253,640.884 158.937,641.039 158.659,641.141 L 158.659,640.273 C 159.161,640.037 159.6,639.751 159.976,639.415 C 160.352,639.079 160.619,638.752 160.775,638.436 L 161.352,638.436 Z "/>
		</g>
		<g id="dp_group064">
			<path id="dp_path065" fill="#02a73c" fill-rule="evenodd" d="M 173.703,640.72 L 173.488,641.779 C 173.179,641.861 172.877,641.901 172.587,641.901 C 172.071,641.901 171.657,641.773 171.351,641.52 C 171.123,641.328 171.008,641.068 171.008,640.737 C 171.008,640.569 171.069,640.184 171.193,639.581 L 172.121,635.148 L 171.096,635.148 L 171.304,634.159 L 172.329,634.159 L 172.721,632.301 L 174.197,631.411 L 173.624,634.159 L 174.893,634.159 L 174.687,635.148 L 173.416,635.148 L 172.537,639.364 C 172.427,639.901 172.372,640.221 172.372,640.328 C 172.372,640.481 172.416,640.597 172.504,640.68 C 172.593,640.761 172.737,640.801 172.937,640.801 C 173.224,640.801 173.48,640.775 173.703,640.72 Z "/>
			<path id="dp_path066" fill="#02a73c" fill-rule="evenodd" d="M 178.231,646.447 L 177.336,646.447 L 177.336,640.721 C 177.119,640.928 176.835,641.133 176.484,641.34 C 176.132,641.547 175.816,641.701 175.537,641.804 L 175.537,640.936 C 176.04,640.7 176.479,640.413 176.855,640.077 C 177.231,639.741 177.497,639.415 177.653,639.099 L 178.231,639.099 Z "/>
		</g>
		<g id="dp_group067">
			<g id="dp_group068">
				<path id="dp_path069" fill="#02a73c" fill-rule="evenodd" d="M 189.792,660.785 L 192.065,659.391 L 196.611,656.603 L 183.956,648.724 L 185.247,663.575 Z "/>
				<path id="dp_path070" fill="#02a73c" d="M 269.407,785.433 L 192.065,659.391 L 189.793,660.785 L 267.135,786.828 Z "/>
			</g>
		</g>
		<path id="dp_path071" fill="none" fill-rule="evenodd" stroke="#0603bd" stroke-opacity="0.501961" stroke-width="1.33333" d="M 311.991,718.052 C 349.201,661.64 381.477,714.4 431.956,696.224"/>
		<path id="dp_path072" fill="none" fill-rule="evenodd" stroke="#0603bd" stroke-opacity="0.501961" stroke-width="1.33333" d="M 286.267,708.519 C 217.175,745.821 423.477,483.067 431.956,696.224"/>
		<path id="dp_path073" fill="none" fill-rule="evenodd" stroke="#0603bd" stroke-opacity="0.501961" stroke-width="1.33333" d="M 266.239,656.715 C 322.357,665.279 376.793,679.787 431.956,696.224"/>
		<path id="dp_path074" fill="none" fill-rule="evenodd" stroke="#0603bd" stroke-opacity="0.501961" stroke-width="1.33333" d="M 341.709,655.432 C 371.112,664.308 400.963,677.748 431.956,696.224"/>
		<path id="dp_path075" fill="none" fill-rule="evenodd" stroke="#0603bd" stroke-opacity="0.501961" stroke-width="1.33333" d="M 321.944,621.313 C 356.653,629.731 392.748,652.428 431.956,696.224"/>
		<path id="dp_path076" fill="none" fill-rule="evenodd" stroke="#0603bd" stroke-opacity="0.501961" stroke-width="1.33333" d="M 303.636,604.124 C 336.067,592.799 344.428,582.756 286.267,562.385 C 198.357,531.596 404.997,614.444 431.956,696.224"/>
	</g>
</svg>